solid v
facet normal -4.175929341383374e-33 3.145505218184878e-33 1.0
  outer loop
    vertex 0.0 1.2700000000000002 0.7619999999999999
    vertex 0.0432742006128825 18.1087001872802 0.7619999999999999
    vertex -1.0574874309554614e-15 17.779999999999998 0.7619999999999999
  endloop
endfacet
facet normal -4.175929341383374e-33 3.145505218184878e-33 1.0
  outer loop
    vertex 0.0432742006128825 18.1087001872802 0.7619999999999999
    vertex 0.0 1.2700000000000002 0.7619999999999999
    vertex 0.04327420061288303 0.9412998127197992 0.7619999999999999
  endloop
endfacet
facet normal -4.175929341383374e-33 3.145505218184878e-33 1.0
  outer loop
    vertex 0.0432742006128825 18.1087001872802 0.7619999999999999
    vertex 0.04327420061288303 0.9412998127197992 0.7619999999999999
    vertex 0.17014773719376244 18.415 0.7619999999999999
  endloop
endfacet
facet normal -4.175929341383374e-33 3.145505218184878e-33 1.0
  outer loop
    vertex 0.17014773719376244 18.415 0.7619999999999999
    vertex 0.04327420061288303 0.9412998127197992 0.7619999999999999
    vertex 0.17014773719376244 0.6350000000000009 0.7619999999999999
  endloop
endfacet
facet normal -4.175929341383374e-33 3.145505218184878e-33 1.0
  outer loop
    vertex 0.17014773719376244 18.415 0.7619999999999999
    vertex 0.17014773719376244 0.6350000000000009 0.7619999999999999
    vertex 0.3719743878930845 0.3719743878930849 0.7619999999999999
  endloop
endfacet
facet normal -4.175929341383374e-33 3.145505218184878e-33 1.0
  outer loop
    vertex 0.17014773719376244 18.415 0.7619999999999999
    vertex 0.3719743878930845 0.3719743878930849 0.7619999999999999
    vertex 0.3719743878930842 18.678025612106914 0.7619999999999999
  endloop
endfacet
facet normal -4.175929341383374e-33 3.145505218184878e-33 1.0
  outer loop
    vertex 0.3719743878930842 18.678025612106914 0.7619999999999999
    vertex 0.3719743878930845 0.3719743878930849 0.7619999999999999
    vertex 0.635 18.87985226280624 0.7619999999999999
  endloop
endfacet
facet normal -4.175929341383374e-33 3.145505218184878e-33 1.0
  outer loop
    vertex 0.635 18.87985226280624 0.7619999999999999
    vertex 0.3719743878930845 0.3719743878930849 0.7619999999999999
    vertex 0.6349999999999995 0.17014773719376333 0.7619999999999999
  endloop
endfacet
facet normal -4.175929341383374e-33 3.145505218184878e-33 1.0
  outer loop
    vertex 0.635 18.87985226280624 0.7619999999999999
    vertex 0.6349999999999995 0.17014773719376333 0.7619999999999999
    vertex 0.9412998127197976 0.043274200612883555 0.7619999999999999
  endloop
endfacet
facet normal -4.175929341383374e-33 3.145505218184878e-33 1.0
  outer loop
    vertex 0.635 18.87985226280624 0.7619999999999999
    vertex 0.9412998127197976 0.043274200612883555 0.7619999999999999
    vertex 0.9412998127197989 19.006725799387116 0.7619999999999999
  endloop
endfacet
facet normal -4.175929341383374e-33 3.145505218184878e-33 1.0
  outer loop
    vertex 0.9412998127197989 19.006725799387116 0.7619999999999999
    vertex 0.9412998127197976 0.043274200612883555 0.7619999999999999
    vertex 1.27 0.0 0.7619999999999999
  endloop
endfacet
facet normal -4.175929341383374e-33 3.145505218184878e-33 1.0
  outer loop
    vertex 0.9412998127197989 19.006725799387116 0.7619999999999999
    vertex 1.27 0.0 0.7619999999999999
    vertex 1.2699999999999994 17.017999999999997 0.7619999999999999
  endloop
endfacet
facet normal -4.175929341383374e-33 3.145505218184878e-33 1.0
  outer loop
    vertex 1.2699999999999994 17.017999999999997 0.7619999999999999
    vertex 1.27 0.0 0.7619999999999999
    vertex 1.27 2.032 0.7619999999999999
  endloop
endfacet
facet normal -4.175929341383374e-33 3.145505218184878e-33 1.0
  outer loop
    vertex 1.27 2.032 0.7619999999999999
    vertex 1.27 0.0 0.7619999999999999
    vertex 1.2959645203677297 1.8347798876318795 0.7619999999999999
  endloop
endfacet
facet normal -4.175929341383374e-33 3.145505218184878e-33 1.0
  outer loop
    vertex 1.2959645203677297 1.8347798876318795 0.7619999999999999
    vertex 1.27 0.0 0.7619999999999999
    vertex 1.3720886423162573 1.6510000000000007 0.7619999999999999
  endloop
endfacet
facet normal -4.175929341383374e-33 3.145505218184878e-33 1.0
  outer loop
    vertex 1.3720886423162573 1.6510000000000007 0.7619999999999999
    vertex 1.27 0.0 0.7619999999999999
    vertex 1.4931846327358504 1.493184632735851 0.7619999999999999
  endloop
endfacet
facet normal -4.175929341383374e-33 3.145505218184878e-33 1.0
  outer loop
    vertex 1.4931846327358504 1.493184632735851 0.7619999999999999
    vertex 1.27 0.0 0.7619999999999999
    vertex 1.6509999999999996 1.3720886423162582 0.7619999999999999
  endloop
endfacet
facet normal -4.175929341383374e-33 3.145505218184878e-33 1.0
  outer loop
    vertex 1.6509999999999996 1.3720886423162582 0.7619999999999999
    vertex 1.27 0.0 0.7619999999999999
    vertex 1.8347798876318784 1.2959645203677301 0.7619999999999999
  endloop
endfacet
facet normal -4.175929341383374e-33 3.145505218184878e-33 1.0
  outer loop
    vertex 1.8347798876318784 1.2959645203677301 0.7619999999999999
    vertex 1.27 0.0 0.7619999999999999
    vertex 2.032 1.27 0.7619999999999999
  endloop
endfacet
facet normal -4.175929341383374e-33 3.145505218184878e-33 1.0
  outer loop
    vertex 2.032 1.27 0.7619999999999999
    vertex 1.27 0.0 0.7619999999999999
    vertex 17.779999999999994 0.0 0.7619999999999999
  endloop
endfacet
facet normal -4.175929341383374e-33 3.145505218184878e-33 1.0
  outer loop
    vertex 2.032 1.27 0.7619999999999999
    vertex 17.779999999999994 0.0 0.7619999999999999
    vertex 17.017999999999994 1.27 0.7619999999999999
  endloop
endfacet
facet normal -4.175929341383374e-33 3.145505218184878e-33 1.0
  outer loop
    vertex 17.017999999999994 1.27 0.7619999999999999
    vertex 17.779999999999994 0.0 0.7619999999999999
    vertex 17.215220112368115 1.29596452036773 0.7619999999999999
  endloop
endfacet
facet normal -4.175929341383374e-33 3.145505218184878e-33 1.0
  outer loop
    vertex 17.215220112368115 1.29596452036773 0.7619999999999999
    vertex 17.779999999999994 0.0 0.7619999999999999
    vertex 17.398999999999994 1.3720886423162577 0.7619999999999999
  endloop
endfacet
facet normal -4.175929341383374e-33 3.145505218184878e-33 1.0
  outer loop
    vertex 17.398999999999994 1.3720886423162577 0.7619999999999999
    vertex 17.779999999999994 0.0 0.7619999999999999
    vertex 17.556815367264143 1.4931846327358507 0.7619999999999999
  endloop
endfacet
facet normal -4.175929341383374e-33 3.145505218184878e-33 1.0
  outer loop
    vertex 17.556815367264143 1.4931846327358507 0.7619999999999999
    vertex 17.779999999999994 0.0 0.7619999999999999
    vertex 17.677911357683737 1.651 0.7619999999999999
  endloop
endfacet
facet normal -4.175929341383374e-33 3.145505218184878e-33 1.0
  outer loop
    vertex 17.677911357683737 1.651 0.7619999999999999
    vertex 17.779999999999994 0.0 0.7619999999999999
    vertex 17.754035479632265 1.834779887631879 0.7619999999999999
  endloop
endfacet
facet normal -4.175929341383374e-33 3.145505218184878e-33 1.0
  outer loop
    vertex 17.754035479632265 1.834779887631879 0.7619999999999999
    vertex 17.779999999999994 0.0 0.7619999999999999
    vertex 17.779999999999994 2.032 0.7619999999999999
  endloop
endfacet
facet normal -4.175929341383374e-33 3.145505218184878e-33 1.0
  outer loop
    vertex 17.779999999999994 2.032 0.7619999999999999
    vertex 17.779999999999994 0.0 0.7619999999999999
    vertex 18.108700187280196 0.04327420061288321 0.7619999999999999
  endloop
endfacet
facet normal -4.175929341383374e-33 3.145505218184878e-33 1.0
  outer loop
    vertex 17.779999999999994 2.032 0.7619999999999999
    vertex 18.108700187280196 0.04327420061288321 0.7619999999999999
    vertex 17.779999999999994 17.017999999999997 0.7619999999999999
  endloop
endfacet
facet normal -4.175929341383374e-33 3.145505218184878e-33 1.0
  outer loop
    vertex 17.779999999999994 17.017999999999997 0.7619999999999999
    vertex 18.108700187280196 0.04327420061288321 0.7619999999999999
    vertex 17.779999999999994 19.049999999999997 0.7619999999999999
  endloop
endfacet
facet normal -4.175929341383374e-33 3.145505218184878e-33 1.0
  outer loop
    vertex 17.779999999999994 19.049999999999997 0.7619999999999999
    vertex 18.108700187280196 0.04327420061288321 0.7619999999999999
    vertex 18.108700187280196 19.006725799387116 0.7619999999999999
  endloop
endfacet
facet normal -4.175929341383374e-33 3.145505218184878e-33 1.0
  outer loop
    vertex 18.108700187280196 19.006725799387116 0.7619999999999999
    vertex 18.108700187280196 0.04327420061288321 0.7619999999999999
    vertex 18.414999999999996 0.1701477371937628 0.7619999999999999
  endloop
endfacet
facet normal -4.175929341383374e-33 3.145505218184878e-33 1.0
  outer loop
    vertex 18.108700187280196 19.006725799387116 0.7619999999999999
    vertex 18.414999999999996 0.1701477371937628 0.7619999999999999
    vertex 18.414999999999996 18.879852262806235 0.7619999999999999
  endloop
endfacet
facet normal -4.175929341383374e-33 3.145505218184878e-33 1.0
  outer loop
    vertex 18.414999999999996 18.879852262806235 0.7619999999999999
    vertex 18.414999999999996 0.1701477371937628 0.7619999999999999
    vertex 18.67802561210691 0.3719743878930845 0.7619999999999999
  endloop
endfacet
facet normal -4.175929341383374e-33 3.145505218184878e-33 1.0
  outer loop
    vertex 18.414999999999996 18.879852262806235 0.7619999999999999
    vertex 18.67802561210691 0.3719743878930845 0.7619999999999999
    vertex 18.67802561210691 18.678025612106914 0.7619999999999999
  endloop
endfacet
facet normal -4.175929341383374e-33 3.145505218184878e-33 1.0
  outer loop
    vertex 18.67802561210691 18.678025612106914 0.7619999999999999
    vertex 18.67802561210691 0.3719743878930845 0.7619999999999999
    vertex 18.87985226280623 0.6349999999999998 0.7619999999999999
  endloop
endfacet
facet normal -4.175929341383374e-33 3.145505218184878e-33 1.0
  outer loop
    vertex 18.67802561210691 18.678025612106914 0.7619999999999999
    vertex 18.87985226280623 0.6349999999999998 0.7619999999999999
    vertex 18.879852262806235 18.415 0.7619999999999999
  endloop
endfacet
facet normal -4.175929341383374e-33 3.145505218184878e-33 1.0
  outer loop
    vertex 18.879852262806235 18.415 0.7619999999999999
    vertex 18.87985226280623 0.6349999999999998 0.7619999999999999
    vertex 19.006725799387112 0.9412998127197983 0.7619999999999999
  endloop
endfacet
facet normal -4.175929341383374e-33 3.145505218184878e-33 1.0
  outer loop
    vertex 18.879852262806235 18.415 0.7619999999999999
    vertex 19.006725799387112 0.9412998127197983 0.7619999999999999
    vertex 19.006725799387112 18.1087001872802 0.7619999999999999
  endloop
endfacet
facet normal -4.175929341383374e-33 3.145505218184878e-33 1.0
  outer loop
    vertex 19.006725799387112 18.1087001872802 0.7619999999999999
    vertex 19.006725799387112 0.9412998127197983 0.7619999999999999
    vertex 19.049999999999997 1.27 0.7619999999999999
  endloop
endfacet
facet normal -4.175929341383374e-33 3.145505218184878e-33 1.0
  outer loop
    vertex 19.006725799387112 18.1087001872802 0.7619999999999999
    vertex 19.049999999999997 1.27 0.7619999999999999
    vertex 19.049999999999997 17.779999999999998 0.7619999999999999
  endloop
endfacet
facet normal -4.175929341383374e-33 3.145505218184878e-33 1.0
  outer loop
    vertex 1.2699999999999994 17.017999999999997 0.7619999999999999
    vertex 1.2700000000000005 19.049999999999997 0.7619999999999999
    vertex 0.9412998127197989 19.006725799387116 0.7619999999999999
  endloop
endfacet
facet normal -4.175929341383374e-33 3.145505218184878e-33 1.0
  outer loop
    vertex 1.2700000000000005 19.049999999999997 0.7619999999999999
    vertex 1.2699999999999994 17.017999999999997 0.7619999999999999
    vertex 1.2959645203677292 17.21522011236812 0.7619999999999999
  endloop
endfacet
facet normal -4.175929341383374e-33 3.145505218184878e-33 1.0
  outer loop
    vertex 1.2700000000000005 19.049999999999997 0.7619999999999999
    vertex 1.2959645203677292 17.21522011236812 0.7619999999999999
    vertex 1.372088642316257 17.398999999999997 0.7619999999999999
  endloop
endfacet
facet normal -4.175929341383374e-33 3.145505218184878e-33 1.0
  outer loop
    vertex 1.2700000000000005 19.049999999999997 0.7619999999999999
    vertex 1.372088642316257 17.398999999999997 0.7619999999999999
    vertex 1.4931846327358498 17.556815367264146 0.7619999999999999
  endloop
endfacet
facet normal -4.175929341383374e-33 3.145505218184878e-33 1.0
  outer loop
    vertex 1.2700000000000005 19.049999999999997 0.7619999999999999
    vertex 1.4931846327358498 17.556815367264146 0.7619999999999999
    vertex 1.6509999999999994 17.67791135768374 0.7619999999999999
  endloop
endfacet
facet normal -4.175929341383374e-33 3.145505218184878e-33 1.0
  outer loop
    vertex 1.2700000000000005 19.049999999999997 0.7619999999999999
    vertex 1.6509999999999994 17.67791135768374 0.7619999999999999
    vertex 1.8347798876318788 17.754035479632268 0.7619999999999999
  endloop
endfacet
facet normal -4.175929341383374e-33 3.145505218184878e-33 1.0
  outer loop
    vertex 1.2700000000000005 19.049999999999997 0.7619999999999999
    vertex 1.8347798876318788 17.754035479632268 0.7619999999999999
    vertex 2.0319999999999996 17.779999999999998 0.7619999999999999
  endloop
endfacet
facet normal -4.175929341383374e-33 3.145505218184878e-33 1.0
  outer loop
    vertex 1.2700000000000005 19.049999999999997 0.7619999999999999
    vertex 2.0319999999999996 17.779999999999998 0.7619999999999999
    vertex 17.779999999999994 19.049999999999997 0.7619999999999999
  endloop
endfacet
facet normal -4.175929341383374e-33 3.145505218184878e-33 1.0
  outer loop
    vertex 17.779999999999994 19.049999999999997 0.7619999999999999
    vertex 2.0319999999999996 17.779999999999998 0.7619999999999999
    vertex 17.017999999999994 17.779999999999998 0.7619999999999999
  endloop
endfacet
facet normal -4.175929341383374e-33 3.145505218184878e-33 1.0
  outer loop
    vertex 17.779999999999994 19.049999999999997 0.7619999999999999
    vertex 17.017999999999994 17.779999999999998 0.7619999999999999
    vertex 17.215220112368115 17.754035479632268 0.7619999999999999
  endloop
endfacet
facet normal -4.175929341383374e-33 3.145505218184878e-33 1.0
  outer loop
    vertex 17.779999999999994 19.049999999999997 0.7619999999999999
    vertex 17.215220112368115 17.754035479632268 0.7619999999999999
    vertex 17.398999999999994 17.67791135768374 0.7619999999999999
  endloop
endfacet
facet normal -4.175929341383374e-33 3.145505218184878e-33 1.0
  outer loop
    vertex 17.779999999999994 19.049999999999997 0.7619999999999999
    vertex 17.398999999999994 17.67791135768374 0.7619999999999999
    vertex 17.556815367264143 17.556815367264146 0.7619999999999999
  endloop
endfacet
facet normal -4.175929341383374e-33 3.145505218184878e-33 1.0
  outer loop
    vertex 17.779999999999994 19.049999999999997 0.7619999999999999
    vertex 17.556815367264143 17.556815367264146 0.7619999999999999
    vertex 17.677911357683737 17.398999999999997 0.7619999999999999
  endloop
endfacet
facet normal -4.175929341383374e-33 3.145505218184878e-33 1.0
  outer loop
    vertex 17.779999999999994 19.049999999999997 0.7619999999999999
    vertex 17.677911357683737 17.398999999999997 0.7619999999999999
    vertex 17.754035479632265 17.21522011236812 0.7619999999999999
  endloop
endfacet
facet normal -4.175929341383374e-33 3.145505218184878e-33 1.0
  outer loop
    vertex 17.779999999999994 19.049999999999997 0.7619999999999999
    vertex 17.754035479632265 17.21522011236812 0.7619999999999999
    vertex 17.779999999999994 17.017999999999997 0.7619999999999999
  endloop
endfacet
facet normal 0.1305261922200514 -0.9914448613738104 0.0
  outer loop
    vertex 18.108700187280196 0.04327420061288321 0.7619999999999999
    vertex 17.779999999999994 0.0 0.0
    vertex 18.108700187280196 0.04327420061288321 0.0
  endloop
endfacet
facet normal 0.1305261922200514 -0.9914448613738104 0.0
  outer loop
    vertex 17.779999999999994 0.0 0.0
    vertex 18.108700187280196 0.04327420061288321 0.7619999999999999
    vertex 17.779999999999994 0.0 0.7619999999999999
  endloop
endfacet
facet normal -0.0 -1.0 -0.0
  outer loop
    vertex 17.779999999999994 0.0 0.7619999999999999
    vertex 1.27 0.0 0.0
    vertex 17.779999999999994 0.0 0.0
  endloop
endfacet
facet normal -0.0 -1.0 -0.0
  outer loop
    vertex 1.27 0.0 0.0
    vertex 17.779999999999994 0.0 0.7619999999999999
    vertex 1.27 0.0 0.7619999999999999
  endloop
endfacet
facet normal -0.13052619222005205 -0.9914448613738105 -0.0
  outer loop
    vertex 1.27 0.0 0.7619999999999999
    vertex 0.9412998127197976 0.043274200612883555 0.0
    vertex 1.27 0.0 0.0
  endloop
endfacet
facet normal -0.13052619222005205 -0.9914448613738105 -0.0
  outer loop
    vertex 0.9412998127197976 0.043274200612883555 0.0
    vertex 1.27 0.0 0.7619999999999999
    vertex 0.9412998127197976 0.043274200612883555 0.7619999999999999
  endloop
endfacet
facet normal -0.3826834323650906 -0.9238795325112865 -0.0
  outer loop
    vertex 0.9412998127197976 0.043274200612883555 0.7619999999999999
    vertex 0.6349999999999995 0.17014773719376333 0.0
    vertex 0.9412998127197976 0.043274200612883555 0.0
  endloop
endfacet
facet normal -0.3826834323650906 -0.9238795325112865 -0.0
  outer loop
    vertex 0.6349999999999995 0.17014773719376333 0.0
    vertex 0.9412998127197976 0.043274200612883555 0.7619999999999999
    vertex 0.6349999999999995 0.17014773719376333 0.7619999999999999
  endloop
endfacet
facet normal -0.6087614290087209 -0.7933533402912349 -0.0
  outer loop
    vertex 0.6349999999999995 0.17014773719376333 0.7619999999999999
    vertex 0.3719743878930845 0.3719743878930849 0.0
    vertex 0.6349999999999995 0.17014773719376333 0.0
  endloop
endfacet
facet normal -0.6087614290087209 -0.7933533402912349 -0.0
  outer loop
    vertex 0.3719743878930845 0.3719743878930849 0.0
    vertex 0.6349999999999995 0.17014773719376333 0.7619999999999999
    vertex 0.3719743878930845 0.3719743878930849 0.7619999999999999
  endloop
endfacet
facet normal -0.7933533402912355 -0.6087614290087204 -0.0
  outer loop
    vertex 0.17014773719376244 0.6350000000000009 0.7619999999999999
    vertex 0.3719743878930845 0.3719743878930849 0.0
    vertex 0.3719743878930845 0.3719743878930849 0.7619999999999999
  endloop
endfacet
facet normal -0.7933533402912355 -0.6087614290087204 -0.0
  outer loop
    vertex 0.3719743878930845 0.3719743878930849 0.0
    vertex 0.17014773719376244 0.6350000000000009 0.7619999999999999
    vertex 0.17014773719376244 0.6350000000000009 0.0
  endloop
endfacet
facet normal -0.9238795325112868 -0.3826834323650895 -0.0
  outer loop
    vertex 0.04327420061288303 0.9412998127197992 0.7619999999999999
    vertex 0.17014773719376244 0.6350000000000009 0.0
    vertex 0.17014773719376244 0.6350000000000009 0.7619999999999999
  endloop
endfacet
facet normal -0.9238795325112868 -0.3826834323650895 -0.0
  outer loop
    vertex 0.17014773719376244 0.6350000000000009 0.0
    vertex 0.04327420061288303 0.9412998127197992 0.7619999999999999
    vertex 0.04327420061288303 0.9412998127197992 0.0
  endloop
endfacet
facet normal -0.9914448613738105 -0.13052619222005102 -0.0
  outer loop
    vertex 0.0 1.2700000000000002 0.7619999999999999
    vertex 0.04327420061288303 0.9412998127197992 0.0
    vertex 0.04327420061288303 0.9412998127197992 0.7619999999999999
  endloop
endfacet
facet normal -0.9914448613738105 -0.13052619222005102 -0.0
  outer loop
    vertex 0.04327420061288303 0.9412998127197992 0.0
    vertex 0.0 1.2700000000000002 0.7619999999999999
    vertex 0.0 1.2700000000000002 0.0
  endloop
endfacet
facet normal -1.0 -6.405132834375905e-17 -0.0
  outer loop
    vertex -1.0574874309554614e-15 17.779999999999998 0.7619999999999999
    vertex 0.0 1.2700000000000002 0.0
    vertex 0.0 1.2700000000000002 0.7619999999999999
  endloop
endfacet
facet normal -1.0 -6.405132834375905e-17 -0.0
  outer loop
    vertex 0.0 1.2700000000000002 0.0
    vertex -1.0574874309554614e-15 17.779999999999998 0.7619999999999999
    vertex -1.0574874309554614e-15 17.779999999999998 0.0
  endloop
endfacet
facet normal -0.9914448613738104 0.13052619222005246 0.0
  outer loop
    vertex 0.0432742006128825 18.1087001872802 0.7619999999999999
    vertex -1.0574874309554614e-15 17.779999999999998 0.0
    vertex -1.0574874309554614e-15 17.779999999999998 0.7619999999999999
  endloop
endfacet
facet normal -0.9914448613738104 0.13052619222005246 0.0
  outer loop
    vertex -1.0574874309554614e-15 17.779999999999998 0.0
    vertex 0.0432742006128825 18.1087001872802 0.7619999999999999
    vertex 0.0432742006128825 18.1087001872802 0.0
  endloop
endfacet
facet normal -0.9238795325112867 0.38268343236508995 0.0
  outer loop
    vertex 0.17014773719376244 18.415 0.7619999999999999
    vertex 0.0432742006128825 18.1087001872802 0.0
    vertex 0.0432742006128825 18.1087001872802 0.7619999999999999
  endloop
endfacet
facet normal -0.9238795325112867 0.38268343236508995 0.0
  outer loop
    vertex 0.0432742006128825 18.1087001872802 0.0
    vertex 0.17014773719376244 18.415 0.7619999999999999
    vertex 0.17014773719376244 18.415 0.0
  endloop
endfacet
facet normal -0.7933533402912357 0.60876142900872 0.0
  outer loop
    vertex 0.3719743878930842 18.678025612106914 0.7619999999999999
    vertex 0.17014773719376244 18.415 0.0
    vertex 0.17014773719376244 18.415 0.7619999999999999
  endloop
endfacet
facet normal -0.7933533402912357 0.60876142900872 0.0
  outer loop
    vertex 0.17014773719376244 18.415 0.0
    vertex 0.3719743878930842 18.678025612106914 0.7619999999999999
    vertex 0.3719743878930842 18.678025612106914 0.0
  endloop
endfacet
facet normal -0.6087614290087228 0.7933533402912337 0.0
  outer loop
    vertex 0.3719743878930842 18.678025612106914 0.7619999999999999
    vertex 0.635 18.87985226280624 0.0
    vertex 0.3719743878930842 18.678025612106914 0.0
  endloop
endfacet
facet normal -0.6087614290087228 0.7933533402912337 0.0
  outer loop
    vertex 0.635 18.87985226280624 0.0
    vertex 0.3719743878930842 18.678025612106914 0.7619999999999999
    vertex 0.635 18.87985226280624 0.7619999999999999
  endloop
endfacet
facet normal -0.3826834323650858 0.9238795325112884 0.0
  outer loop
    vertex 0.635 18.87985226280624 0.7619999999999999
    vertex 0.9412998127197989 19.006725799387116 0.0
    vertex 0.635 18.87985226280624 0.0
  endloop
endfacet
facet normal -0.3826834323650858 0.9238795325112884 0.0
  outer loop
    vertex 0.9412998127197989 19.006725799387116 0.0
    vertex 0.635 18.87985226280624 0.7619999999999999
    vertex 0.9412998127197989 19.006725799387116 0.7619999999999999
  endloop
endfacet
facet normal -0.1305261922200518 0.9914448613738104 0.0
  outer loop
    vertex 0.9412998127197989 19.006725799387116 0.7619999999999999
    vertex 1.2700000000000005 19.049999999999997 0.0
    vertex 0.9412998127197989 19.006725799387116 0.0
  endloop
endfacet
facet normal -0.1305261922200518 0.9914448613738104 0.0
  outer loop
    vertex 1.2700000000000005 19.049999999999997 0.0
    vertex 0.9412998127197989 19.006725799387116 0.7619999999999999
    vertex 1.2700000000000005 19.049999999999997 0.7619999999999999
  endloop
endfacet
facet normal -0.0 1.0 0.0
  outer loop
    vertex 1.2700000000000005 19.049999999999997 0.7619999999999999
    vertex 17.779999999999994 19.049999999999997 0.0
    vertex 1.2700000000000005 19.049999999999997 0.0
  endloop
endfacet
facet normal -0.0 1.0 0.0
  outer loop
    vertex 17.779999999999994 19.049999999999997 0.0
    vertex 1.2700000000000005 19.049999999999997 0.7619999999999999
    vertex 17.779999999999994 19.049999999999997 0.7619999999999999
  endloop
endfacet
facet normal 0.13052619222005193 0.9914448613738104 0.0
  outer loop
    vertex 17.779999999999994 19.049999999999997 0.7619999999999999
    vertex 18.108700187280196 19.006725799387116 0.0
    vertex 17.779999999999994 19.049999999999997 0.0
  endloop
endfacet
facet normal 0.13052619222005193 0.9914448613738104 0.0
  outer loop
    vertex 18.108700187280196 19.006725799387116 0.0
    vertex 17.779999999999994 19.049999999999997 0.7619999999999999
    vertex 18.108700187280196 19.006725799387116 0.7619999999999999
  endloop
endfacet
facet normal 0.38268343236509267 0.9238795325112855 0.0
  outer loop
    vertex 18.108700187280196 19.006725799387116 0.7619999999999999
    vertex 18.414999999999996 18.879852262806235 0.0
    vertex 18.108700187280196 19.006725799387116 0.0
  endloop
endfacet
facet normal 0.38268343236509267 0.9238795325112855 0.0
  outer loop
    vertex 18.414999999999996 18.879852262806235 0.0
    vertex 18.108700187280196 19.006725799387116 0.7619999999999999
    vertex 18.414999999999996 18.879852262806235 0.7619999999999999
  endloop
endfacet
facet normal 0.6087614290087173 0.7933533402912377 0.0
  outer loop
    vertex 18.414999999999996 18.879852262806235 0.7619999999999999
    vertex 18.67802561210691 18.678025612106914 0.0
    vertex 18.414999999999996 18.879852262806235 0.0
  endloop
endfacet
facet normal 0.6087614290087173 0.7933533402912377 0.0
  outer loop
    vertex 18.67802561210691 18.678025612106914 0.0
    vertex 18.414999999999996 18.879852262806235 0.7619999999999999
    vertex 18.67802561210691 18.678025612106914 0.7619999999999999
  endloop
endfacet
facet normal 0.7933533402912337 0.6087614290087228 0.0
  outer loop
    vertex 18.67802561210691 18.678025612106914 0.0
    vertex 18.879852262806235 18.415 0.7619999999999999
    vertex 18.879852262806235 18.415 0.0
  endloop
endfacet
facet normal 0.7933533402912337 0.6087614290087228 0.0
  outer loop
    vertex 18.879852262806235 18.415 0.7619999999999999
    vertex 18.67802561210691 18.678025612106914 0.0
    vertex 18.67802561210691 18.678025612106914 0.7619999999999999
  endloop
endfacet
facet normal 0.9238795325112886 0.3826834323650854 0.0
  outer loop
    vertex 18.879852262806235 18.415 0.0
    vertex 19.006725799387112 18.1087001872802 0.7619999999999999
    vertex 19.006725799387112 18.1087001872802 0.0
  endloop
endfacet
facet normal 0.9238795325112886 0.3826834323650854 0.0
  outer loop
    vertex 19.006725799387112 18.1087001872802 0.7619999999999999
    vertex 18.879852262806235 18.415 0.0
    vertex 18.879852262806235 18.415 0.7619999999999999
  endloop
endfacet
facet normal 0.9914448613738104 0.13052619222005193 0.0
  outer loop
    vertex 19.006725799387112 18.1087001872802 0.0
    vertex 19.049999999999997 17.779999999999998 0.7619999999999999
    vertex 19.049999999999997 17.779999999999998 0.0
  endloop
endfacet
facet normal 0.9914448613738104 0.13052619222005193 0.0
  outer loop
    vertex 19.049999999999997 17.779999999999998 0.7619999999999999
    vertex 19.006725799387112 18.1087001872802 0.0
    vertex 19.006725799387112 18.1087001872802 0.7619999999999999
  endloop
endfacet
facet normal 1.0 0.0 0.0
  outer loop
    vertex 19.049999999999997 17.779999999999998 0.0
    vertex 19.049999999999997 1.27 0.7619999999999999
    vertex 19.049999999999997 1.27 0.0
  endloop
endfacet
facet normal 1.0 0.0 0.0
  outer loop
    vertex 19.049999999999997 1.27 0.7619999999999999
    vertex 19.049999999999997 17.779999999999998 0.0
    vertex 19.049999999999997 17.779999999999998 0.7619999999999999
  endloop
endfacet
facet normal 0.9914448613738104 -0.1305261922200518 0.0
  outer loop
    vertex 19.049999999999997 1.27 0.0
    vertex 19.006725799387112 0.9412998127197983 0.7619999999999999
    vertex 19.006725799387112 0.9412998127197983 0.0
  endloop
endfacet
facet normal 0.9914448613738104 -0.1305261922200518 0.0
  outer loop
    vertex 19.006725799387112 0.9412998127197983 0.7619999999999999
    vertex 19.049999999999997 1.27 0.0
    vertex 19.049999999999997 1.27 0.7619999999999999
  endloop
endfacet
facet normal 0.9238795325112852 -0.38268343236509333 0.0
  outer loop
    vertex 19.006725799387112 0.9412998127197983 0.0
    vertex 18.87985226280623 0.6349999999999998 0.7619999999999999
    vertex 18.87985226280623 0.6349999999999998 0.0
  endloop
endfacet
facet normal 0.9238795325112852 -0.38268343236509333 0.0
  outer loop
    vertex 18.87985226280623 0.6349999999999998 0.7619999999999999
    vertex 19.006725799387112 0.9412998127197983 0.0
    vertex 19.006725799387112 0.9412998127197983 0.7619999999999999
  endloop
endfacet
facet normal 0.7933533402912372 -0.6087614290087181 0.0
  outer loop
    vertex 18.87985226280623 0.6349999999999998 0.0
    vertex 18.67802561210691 0.3719743878930845 0.7619999999999999
    vertex 18.67802561210691 0.3719743878930845 0.0
  endloop
endfacet
facet normal 0.7933533402912372 -0.6087614290087181 0.0
  outer loop
    vertex 18.67802561210691 0.3719743878930845 0.7619999999999999
    vertex 18.87985226280623 0.6349999999999998 0.0
    vertex 18.87985226280623 0.6349999999999998 0.7619999999999999
  endloop
endfacet
facet normal 0.60876142900872 -0.7933533402912357 0.0
  outer loop
    vertex 18.67802561210691 0.3719743878930845 0.7619999999999999
    vertex 18.414999999999996 0.1701477371937628 0.0
    vertex 18.67802561210691 0.3719743878930845 0.0
  endloop
endfacet
facet normal 0.60876142900872 -0.7933533402912357 0.0
  outer loop
    vertex 18.414999999999996 0.1701477371937628 0.0
    vertex 18.67802561210691 0.3719743878930845 0.7619999999999999
    vertex 18.414999999999996 0.1701477371937628 0.7619999999999999
  endloop
endfacet
facet normal 0.38268343236508906 -0.9238795325112871 0.0
  outer loop
    vertex 18.414999999999996 0.1701477371937628 0.7619999999999999
    vertex 18.108700187280196 0.04327420061288321 0.0
    vertex 18.414999999999996 0.1701477371937628 0.0
  endloop
endfacet
facet normal 0.38268343236508906 -0.9238795325112871 0.0
  outer loop
    vertex 18.108700187280196 0.04327420061288321 0.0
    vertex 18.414999999999996 0.1701477371937628 0.7619999999999999
    vertex 18.108700187280196 0.04327420061288321 0.7619999999999999
  endloop
endfacet
facet normal -1.0 -4.7043348501065947e-17 0.0
  outer loop
    vertex 1.2699999999999994 17.017999999999997 4.470400000000004
    vertex 1.27 2.032 0.7619999999999999
    vertex 1.27 2.032 4.470400000000004
  endloop
endfacet
facet normal -1.0 -4.7043348501065947e-17 0.0
  outer loop
    vertex 1.27 2.032 0.7619999999999999
    vertex 1.2699999999999994 17.017999999999997 4.470400000000004
    vertex 1.2699999999999994 17.017999999999997 0.7619999999999999
  endloop
endfacet
facet normal -0.9914448613738105 0.1305261922200514 0.0
  outer loop
    vertex 1.2959645203677292 17.21522011236812 4.470400000000004
    vertex 1.2699999999999994 17.017999999999997 0.7619999999999999
    vertex 1.2699999999999994 17.017999999999997 4.470400000000004
  endloop
endfacet
facet normal -0.9914448613738105 0.1305261922200514 0.0
  outer loop
    vertex 1.2699999999999994 17.017999999999997 0.7619999999999999
    vertex 1.2959645203677292 17.21522011236812 4.470400000000004
    vertex 1.2959645203677292 17.21522011236812 0.7619999999999999
  endloop
endfacet
facet normal -0.9238795325112871 0.38268343236508917 0.0
  outer loop
    vertex 1.372088642316257 17.398999999999997 4.470400000000004
    vertex 1.2959645203677292 17.21522011236812 0.7619999999999999
    vertex 1.2959645203677292 17.21522011236812 4.470400000000004
  endloop
endfacet
facet normal -0.9238795325112871 0.38268343236508917 0.0
  outer loop
    vertex 1.2959645203677292 17.21522011236812 0.7619999999999999
    vertex 1.372088642316257 17.398999999999997 4.470400000000004
    vertex 1.372088642316257 17.398999999999997 0.7619999999999999
  endloop
endfacet
facet normal -0.7933533402912342 0.6087614290087221 0.0
  outer loop
    vertex 1.4931846327358498 17.556815367264146 4.470400000000004
    vertex 1.372088642316257 17.398999999999997 0.7619999999999999
    vertex 1.372088642316257 17.398999999999997 4.470400000000004
  endloop
endfacet
facet normal -0.7933533402912342 0.6087614290087221 0.0
  outer loop
    vertex 1.372088642316257 17.398999999999997 0.7619999999999999
    vertex 1.4931846327358498 17.556815367264146 4.470400000000004
    vertex 1.4931846327358498 17.556815367264146 0.7619999999999999
  endloop
endfacet
facet normal -0.6087614290087229 0.7933533402912336 -0.0
  outer loop
    vertex 1.4931846327358498 17.556815367264146 4.470400000000004
    vertex 1.6509999999999994 17.67791135768374 0.7619999999999999
    vertex 1.4931846327358498 17.556815367264146 0.7619999999999999
  endloop
endfacet
facet normal -0.6087614290087229 0.7933533402912336 -0.0
  outer loop
    vertex 1.6509999999999994 17.67791135768374 0.7619999999999999
    vertex 1.4931846327358498 17.556815367264146 4.470400000000004
    vertex 1.6509999999999994 17.67791135768374 4.470400000000004
  endloop
endfacet
facet normal -0.3826834323650854 0.9238795325112886 -0.0
  outer loop
    vertex 1.6509999999999994 17.67791135768374 4.470400000000004
    vertex 1.8347798876318788 17.754035479632268 0.7619999999999999
    vertex 1.6509999999999994 17.67791135768374 0.7619999999999999
  endloop
endfacet
facet normal -0.3826834323650854 0.9238795325112886 -0.0
  outer loop
    vertex 1.8347798876318788 17.754035479632268 0.7619999999999999
    vertex 1.6509999999999994 17.67791135768374 4.470400000000004
    vertex 1.8347798876318788 17.754035479632268 4.470400000000004
  endloop
endfacet
facet normal -0.13052619222005749 0.9914448613738096 -0.0
  outer loop
    vertex 1.8347798876318788 17.754035479632268 4.470400000000004
    vertex 2.0319999999999996 17.779999999999998 0.7619999999999999
    vertex 1.8347798876318788 17.754035479632268 0.7619999999999999
  endloop
endfacet
facet normal -0.13052619222005749 0.9914448613738096 -0.0
  outer loop
    vertex 2.0319999999999996 17.779999999999998 0.7619999999999999
    vertex 1.8347798876318788 17.754035479632268 4.470400000000004
    vertex 2.0319999999999996 17.779999999999998 4.470400000000004
  endloop
endfacet
facet normal -0.0 1.0 -0.0
  outer loop
    vertex 2.0319999999999996 17.779999999999998 4.470400000000004
    vertex 17.017999999999994 17.779999999999998 0.7619999999999999
    vertex 2.0319999999999996 17.779999999999998 0.7619999999999999
  endloop
endfacet
facet normal -0.0 1.0 -0.0
  outer loop
    vertex 17.017999999999994 17.779999999999998 0.7619999999999999
    vertex 2.0319999999999996 17.779999999999998 4.470400000000004
    vertex 17.017999999999994 17.779999999999998 4.470400000000004
  endloop
endfacet
facet normal 0.13052619222005749 0.9914448613738096 -0.0
  outer loop
    vertex 17.017999999999994 17.779999999999998 4.470400000000004
    vertex 17.215220112368115 17.754035479632268 0.7619999999999999
    vertex 17.017999999999994 17.779999999999998 0.7619999999999999
  endloop
endfacet
facet normal 0.13052619222005749 0.9914448613738096 -0.0
  outer loop
    vertex 17.215220112368115 17.754035479632268 0.7619999999999999
    vertex 17.017999999999994 17.779999999999998 4.470400000000004
    vertex 17.215220112368115 17.754035479632268 4.470400000000004
  endloop
endfacet
facet normal 0.3826834323650854 0.9238795325112886 -0.0
  outer loop
    vertex 17.215220112368115 17.754035479632268 4.470400000000004
    vertex 17.398999999999994 17.67791135768374 0.7619999999999999
    vertex 17.215220112368115 17.754035479632268 0.7619999999999999
  endloop
endfacet
facet normal 0.3826834323650854 0.9238795325112886 -0.0
  outer loop
    vertex 17.398999999999994 17.67791135768374 0.7619999999999999
    vertex 17.215220112368115 17.754035479632268 4.470400000000004
    vertex 17.398999999999994 17.67791135768374 4.470400000000004
  endloop
endfacet
facet normal 0.6087614290087254 0.7933533402912315 -0.0
  outer loop
    vertex 17.398999999999994 17.67791135768374 4.470400000000004
    vertex 17.556815367264143 17.556815367264146 0.7619999999999999
    vertex 17.398999999999994 17.67791135768374 0.7619999999999999
  endloop
endfacet
facet normal 0.6087614290087254 0.7933533402912315 -0.0
  outer loop
    vertex 17.556815367264143 17.556815367264146 0.7619999999999999
    vertex 17.398999999999994 17.67791135768374 4.470400000000004
    vertex 17.556815367264143 17.556815367264146 4.470400000000004
  endloop
endfacet
facet normal 0.7933533402912315 0.6087614290087255 -0.0
  outer loop
    vertex 17.556815367264143 17.556815367264146 0.7619999999999999
    vertex 17.677911357683737 17.398999999999997 4.470400000000004
    vertex 17.677911357683737 17.398999999999997 0.7619999999999999
  endloop
endfacet
facet normal 0.7933533402912315 0.6087614290087255 -0.0
  outer loop
    vertex 17.677911357683737 17.398999999999997 4.470400000000004
    vertex 17.556815367264143 17.556815367264146 0.7619999999999999
    vertex 17.556815367264143 17.556815367264146 4.470400000000004
  endloop
endfacet
facet normal 0.9238795325112886 0.3826834323650854 -0.0
  outer loop
    vertex 17.677911357683737 17.398999999999997 0.7619999999999999
    vertex 17.754035479632265 17.21522011236812 4.470400000000004
    vertex 17.754035479632265 17.21522011236812 0.7619999999999999
  endloop
endfacet
facet normal 0.9238795325112886 0.3826834323650854 -0.0
  outer loop
    vertex 17.754035479632265 17.21522011236812 4.470400000000004
    vertex 17.677911357683737 17.398999999999997 0.7619999999999999
    vertex 17.677911357683737 17.398999999999997 4.470400000000004
  endloop
endfacet
facet normal 0.9914448613738096 0.13052619222005749 -0.0
  outer loop
    vertex 17.754035479632265 17.21522011236812 0.7619999999999999
    vertex 17.779999999999994 17.017999999999997 4.470400000000004
    vertex 17.779999999999994 17.017999999999997 0.7619999999999999
  endloop
endfacet
facet normal 0.9914448613738096 0.13052619222005749 -0.0
  outer loop
    vertex 17.779999999999994 17.017999999999997 4.470400000000004
    vertex 17.754035479632265 17.21522011236812 0.7619999999999999
    vertex 17.754035479632265 17.21522011236812 4.470400000000004
  endloop
endfacet
facet normal 1.0 -0.0 -0.0
  outer loop
    vertex 17.779999999999994 17.017999999999997 0.7619999999999999
    vertex 17.779999999999994 2.032 4.470400000000004
    vertex 17.779999999999994 2.032 0.7619999999999999
  endloop
endfacet
facet normal 1.0 -0.0 -0.0
  outer loop
    vertex 17.779999999999994 2.032 4.470400000000004
    vertex 17.779999999999994 17.017999999999997 0.7619999999999999
    vertex 17.779999999999994 17.017999999999997 4.470400000000004
  endloop
endfacet
facet normal 0.9914448613738096 -0.13052619222005749 -0.0
  outer loop
    vertex 17.779999999999994 2.032 0.7619999999999999
    vertex 17.754035479632265 1.834779887631879 4.470400000000004
    vertex 17.754035479632265 1.834779887631879 0.7619999999999999
  endloop
endfacet
facet normal 0.9914448613738096 -0.13052619222005749 -0.0
  outer loop
    vertex 17.754035479632265 1.834779887631879 4.470400000000004
    vertex 17.779999999999994 2.032 0.7619999999999999
    vertex 17.779999999999994 2.032 4.470400000000004
  endloop
endfacet
facet normal 0.9238795325112884 -0.38268343236508606 -0.0
  outer loop
    vertex 17.754035479632265 1.834779887631879 0.7619999999999999
    vertex 17.677911357683737 1.651 4.470400000000004
    vertex 17.677911357683737 1.651 0.7619999999999999
  endloop
endfacet
facet normal 0.9238795325112884 -0.38268343236508606 -0.0
  outer loop
    vertex 17.677911357683737 1.651 4.470400000000004
    vertex 17.754035479632265 1.834779887631879 0.7619999999999999
    vertex 17.754035479632265 1.834779887631879 4.470400000000004
  endloop
endfacet
facet normal 0.7933533402912332 -0.6087614290087232 -0.0
  outer loop
    vertex 17.677911357683737 1.651 0.7619999999999999
    vertex 17.556815367264143 1.4931846327358507 4.470400000000004
    vertex 17.556815367264143 1.4931846327358507 0.7619999999999999
  endloop
endfacet
facet normal 0.7933533402912332 -0.6087614290087232 -0.0
  outer loop
    vertex 17.556815367264143 1.4931846327358507 4.470400000000004
    vertex 17.677911357683737 1.651 0.7619999999999999
    vertex 17.677911357683737 1.651 4.470400000000004
  endloop
endfacet
facet normal 0.6087614290087227 -0.7933533402912337 0.0
  outer loop
    vertex 17.556815367264143 1.4931846327358507 4.470400000000004
    vertex 17.398999999999994 1.3720886423162577 0.7619999999999999
    vertex 17.556815367264143 1.4931846327358507 0.7619999999999999
  endloop
endfacet
facet normal 0.6087614290087227 -0.7933533402912337 0.0
  outer loop
    vertex 17.398999999999994 1.3720886423162577 0.7619999999999999
    vertex 17.556815367264143 1.4931846327358507 4.470400000000004
    vertex 17.398999999999994 1.3720886423162577 4.470400000000004
  endloop
endfacet
facet normal 0.3826834323650893 -0.9238795325112871 0.0
  outer loop
    vertex 17.398999999999994 1.3720886423162577 4.470400000000004
    vertex 17.215220112368115 1.29596452036773 0.7619999999999999
    vertex 17.398999999999994 1.3720886423162577 0.7619999999999999
  endloop
endfacet
facet normal 0.3826834323650893 -0.9238795325112871 0.0
  outer loop
    vertex 17.215220112368115 1.29596452036773 0.7619999999999999
    vertex 17.398999999999994 1.3720886423162577 4.470400000000004
    vertex 17.215220112368115 1.29596452036773 4.470400000000004
  endloop
endfacet
facet normal 0.1305261922200514 -0.9914448613738105 0.0
  outer loop
    vertex 17.215220112368115 1.29596452036773 4.470400000000004
    vertex 17.017999999999994 1.27 0.7619999999999999
    vertex 17.215220112368115 1.29596452036773 0.7619999999999999
  endloop
endfacet
facet normal 0.1305261922200514 -0.9914448613738105 0.0
  outer loop
    vertex 17.017999999999994 1.27 0.7619999999999999
    vertex 17.215220112368115 1.29596452036773 4.470400000000004
    vertex 17.017999999999994 1.27 4.470400000000004
  endloop
endfacet
facet normal 0.0 -1.0 0.0
  outer loop
    vertex 17.017999999999994 1.27 4.470400000000004
    vertex 2.032 1.27 0.7619999999999999
    vertex 17.017999999999994 1.27 0.7619999999999999
  endloop
endfacet
facet normal 0.0 -1.0 0.0
  outer loop
    vertex 2.032 1.27 0.7619999999999999
    vertex 17.017999999999994 1.27 4.470400000000004
    vertex 2.032 1.27 4.470400000000004
  endloop
endfacet
facet normal -0.13052619222005185 -0.9914448613738105 0.0
  outer loop
    vertex 2.032 1.27 4.470400000000004
    vertex 1.8347798876318784 1.2959645203677301 0.7619999999999999
    vertex 2.032 1.27 0.7619999999999999
  endloop
endfacet
facet normal -0.13052619222005185 -0.9914448613738105 0.0
  outer loop
    vertex 1.8347798876318784 1.2959645203677301 0.7619999999999999
    vertex 2.032 1.27 4.470400000000004
    vertex 1.8347798876318784 1.2959645203677301 4.470400000000004
  endloop
endfacet
facet normal -0.38268343236509117 -0.9238795325112862 0.0
  outer loop
    vertex 1.8347798876318784 1.2959645203677301 4.470400000000004
    vertex 1.6509999999999996 1.3720886423162582 0.7619999999999999
    vertex 1.8347798876318784 1.2959645203677301 0.7619999999999999
  endloop
endfacet
facet normal -0.38268343236509117 -0.9238795325112862 0.0
  outer loop
    vertex 1.6509999999999996 1.3720886423162582 0.7619999999999999
    vertex 1.8347798876318784 1.2959645203677301 4.470400000000004
    vertex 1.6509999999999996 1.3720886423162582 4.470400000000004
  endloop
endfacet
facet normal -0.6087614290087203 -0.7933533402912354 0.0
  outer loop
    vertex 1.6509999999999996 1.3720886423162582 4.470400000000004
    vertex 1.4931846327358504 1.493184632735851 0.7619999999999999
    vertex 1.6509999999999996 1.3720886423162582 0.7619999999999999
  endloop
endfacet
facet normal -0.6087614290087203 -0.7933533402912354 0.0
  outer loop
    vertex 1.4931846327358504 1.493184632735851 0.7619999999999999
    vertex 1.6509999999999996 1.3720886423162582 4.470400000000004
    vertex 1.4931846327358504 1.493184632735851 4.470400000000004
  endloop
endfacet
facet normal -0.7933533402912358 -0.6087614290087197 0.0
  outer loop
    vertex 1.3720886423162573 1.6510000000000007 4.470400000000004
    vertex 1.4931846327358504 1.493184632735851 0.7619999999999999
    vertex 1.4931846327358504 1.493184632735851 4.470400000000004
  endloop
endfacet
facet normal -0.7933533402912358 -0.6087614290087197 0.0
  outer loop
    vertex 1.4931846327358504 1.493184632735851 0.7619999999999999
    vertex 1.3720886423162573 1.6510000000000007 4.470400000000004
    vertex 1.3720886423162573 1.6510000000000007 0.7619999999999999
  endloop
endfacet
facet normal -0.9238795325112868 -0.3826834323650897 0.0
  outer loop
    vertex 1.2959645203677297 1.8347798876318795 4.470400000000004
    vertex 1.3720886423162573 1.6510000000000007 0.7619999999999999
    vertex 1.3720886423162573 1.6510000000000007 4.470400000000004
  endloop
endfacet
facet normal -0.9238795325112868 -0.3826834323650897 0.0
  outer loop
    vertex 1.3720886423162573 1.6510000000000007 0.7619999999999999
    vertex 1.2959645203677297 1.8347798876318795 4.470400000000004
    vertex 1.2959645203677297 1.8347798876318795 0.7619999999999999
  endloop
endfacet
facet normal -0.9914448613738105 -0.13052619222005077 0.0
  outer loop
    vertex 1.27 2.032 4.470400000000004
    vertex 1.2959645203677297 1.8347798876318795 0.7619999999999999
    vertex 1.2959645203677297 1.8347798876318795 4.470400000000004
  endloop
endfacet
facet normal -0.9914448613738105 -0.13052619222005077 0.0
  outer loop
    vertex 1.2959645203677297 1.8347798876318795 0.7619999999999999
    vertex 1.27 2.032 4.470400000000004
    vertex 1.27 2.032 0.7619999999999999
  endloop
endfacet
facet normal 0.0 0.0 -1.0
  outer loop
    vertex 17.779999999999994 19.049999999999997 0.0
    vertex 3.1749999999999967 15.875 -3.524958103184872e-16
    vertex 1.2700000000000005 19.049999999999997 0.0
  endloop
endfacet
facet normal 0.0 0.0 -1.0
  outer loop
    vertex 3.1749999999999967 15.875 -3.524958103184872e-16
    vertex 17.779999999999994 19.049999999999997 0.0
    vertex 15.874999999999993 15.875 -3.524958103184872e-16
  endloop
endfacet
facet normal 0.0 0.0 -1.0
  outer loop
    vertex 15.874999999999993 15.875 -3.524958103184872e-16
    vertex 17.779999999999994 19.049999999999997 0.0
    vertex 15.874999999999993 3.174999999999998 -3.524958103184872e-16
  endloop
endfacet
facet normal 0.0 0.0 -1.0
  outer loop
    vertex 0.0432742006128825 18.1087001872802 0.0
    vertex 0.0 1.2700000000000002 0.0
    vertex -1.0574874309554614e-15 17.779999999999998 0.0
  endloop
endfacet
facet normal 0.0 0.0 -1.0
  outer loop
    vertex 0.0 1.2700000000000002 0.0
    vertex 0.0432742006128825 18.1087001872802 0.0
    vertex 0.04327420061288303 0.9412998127197992 0.0
  endloop
endfacet
facet normal 0.0 0.0 -1.0
  outer loop
    vertex 0.04327420061288303 0.9412998127197992 0.0
    vertex 0.0432742006128825 18.1087001872802 0.0
    vertex 0.17014773719376244 18.415 0.0
  endloop
endfacet
facet normal 0.0 0.0 -1.0
  outer loop
    vertex 0.04327420061288303 0.9412998127197992 0.0
    vertex 0.17014773719376244 18.415 0.0
    vertex 0.17014773719376244 0.6350000000000009 0.0
  endloop
endfacet
facet normal 0.0 0.0 -1.0
  outer loop
    vertex 0.17014773719376244 0.6350000000000009 0.0
    vertex 0.17014773719376244 18.415 0.0
    vertex 0.3719743878930842 18.678025612106914 0.0
  endloop
endfacet
facet normal 0.0 0.0 -1.0
  outer loop
    vertex 0.17014773719376244 0.6350000000000009 0.0
    vertex 0.3719743878930842 18.678025612106914 0.0
    vertex 0.3719743878930845 0.3719743878930849 0.0
  endloop
endfacet
facet normal 0.0 0.0 -1.0
  outer loop
    vertex 0.3719743878930845 0.3719743878930849 0.0
    vertex 0.3719743878930842 18.678025612106914 0.0
    vertex 0.635 18.87985226280624 0.0
  endloop
endfacet
facet normal 0.0 0.0 -1.0
  outer loop
    vertex 0.3719743878930845 0.3719743878930849 0.0
    vertex 0.635 18.87985226280624 0.0
    vertex 0.6349999999999995 0.17014773719376333 0.0
  endloop
endfacet
facet normal 0.0 0.0 -1.0
  outer loop
    vertex 0.6349999999999995 0.17014773719376333 0.0
    vertex 0.635 18.87985226280624 0.0
    vertex 0.9412998127197976 0.043274200612883555 0.0
  endloop
endfacet
facet normal 0.0 0.0 -1.0
  outer loop
    vertex 0.9412998127197976 0.043274200612883555 0.0
    vertex 0.635 18.87985226280624 0.0
    vertex 0.9412998127197989 19.006725799387116 0.0
  endloop
endfacet
facet normal 0.0 0.0 -1.0
  outer loop
    vertex 0.9412998127197976 0.043274200612883555 0.0
    vertex 0.9412998127197989 19.006725799387116 0.0
    vertex 1.27 0.0 0.0
  endloop
endfacet
facet normal 0.0 0.0 -1.0
  outer loop
    vertex 1.27 0.0 0.0
    vertex 0.9412998127197989 19.006725799387116 0.0
    vertex 1.2700000000000005 19.049999999999997 0.0
  endloop
endfacet
facet normal 0.0 0.0 -1.0
  outer loop
    vertex 1.27 0.0 0.0
    vertex 1.2700000000000005 19.049999999999997 0.0
    vertex 3.1749999999999967 3.174999999999998 -3.524958103184872e-16
  endloop
endfacet
facet normal 0.0 0.0 -1.0
  outer loop
    vertex 1.27 0.0 0.0
    vertex 3.1749999999999967 3.174999999999998 -3.524958103184872e-16
    vertex 17.779999999999994 0.0 0.0
  endloop
endfacet
facet normal 0.0 0.0 -1.0
  outer loop
    vertex 3.1749999999999967 3.174999999999998 -3.524958103184872e-16
    vertex 1.2700000000000005 19.049999999999997 0.0
    vertex 3.1749999999999967 15.875 -3.524958103184872e-16
  endloop
endfacet
facet normal 0.0 0.0 -1.0
  outer loop
    vertex 17.779999999999994 0.0 0.0
    vertex 3.1749999999999967 3.174999999999998 -3.524958103184872e-16
    vertex 15.874999999999993 3.174999999999998 -3.524958103184872e-16
  endloop
endfacet
facet normal 0.0 0.0 -1.0
  outer loop
    vertex 17.779999999999994 0.0 0.0
    vertex 15.874999999999993 3.174999999999998 -3.524958103184872e-16
    vertex 17.779999999999994 19.049999999999997 0.0
  endloop
endfacet
facet normal 0.0 0.0 -1.0
  outer loop
    vertex 17.779999999999994 0.0 0.0
    vertex 17.779999999999994 19.049999999999997 0.0
    vertex 18.108700187280196 19.006725799387116 0.0
  endloop
endfacet
facet normal 0.0 0.0 -1.0
  outer loop
    vertex 17.779999999999994 0.0 0.0
    vertex 18.108700187280196 19.006725799387116 0.0
    vertex 18.108700187280196 0.04327420061288321 0.0
  endloop
endfacet
facet normal 0.0 0.0 -1.0
  outer loop
    vertex 18.108700187280196 0.04327420061288321 0.0
    vertex 18.108700187280196 19.006725799387116 0.0
    vertex 18.414999999999996 18.879852262806235 0.0
  endloop
endfacet
facet normal 0.0 0.0 -1.0
  outer loop
    vertex 18.108700187280196 0.04327420061288321 0.0
    vertex 18.414999999999996 18.879852262806235 0.0
    vertex 18.414999999999996 0.1701477371937628 0.0
  endloop
endfacet
facet normal 0.0 0.0 -1.0
  outer loop
    vertex 18.414999999999996 0.1701477371937628 0.0
    vertex 18.414999999999996 18.879852262806235 0.0
    vertex 18.67802561210691 18.678025612106914 0.0
  endloop
endfacet
facet normal 0.0 0.0 -1.0
  outer loop
    vertex 18.414999999999996 0.1701477371937628 0.0
    vertex 18.67802561210691 18.678025612106914 0.0
    vertex 18.67802561210691 0.3719743878930845 0.0
  endloop
endfacet
facet normal 0.0 0.0 -1.0
  outer loop
    vertex 18.67802561210691 0.3719743878930845 0.0
    vertex 18.67802561210691 18.678025612106914 0.0
    vertex 18.879852262806235 18.415 0.0
  endloop
endfacet
facet normal 0.0 0.0 -1.0
  outer loop
    vertex 18.67802561210691 0.3719743878930845 0.0
    vertex 18.879852262806235 18.415 0.0
    vertex 18.87985226280623 0.6349999999999998 0.0
  endloop
endfacet
facet normal 0.0 0.0 -1.0
  outer loop
    vertex 18.87985226280623 0.6349999999999998 0.0
    vertex 18.879852262806235 18.415 0.0
    vertex 19.006725799387112 0.9412998127197983 0.0
  endloop
endfacet
facet normal 0.0 0.0 -1.0
  outer loop
    vertex 19.006725799387112 0.9412998127197983 0.0
    vertex 18.879852262806235 18.415 0.0
    vertex 19.006725799387112 18.1087001872802 0.0
  endloop
endfacet
facet normal 0.0 0.0 -1.0
  outer loop
    vertex 19.006725799387112 0.9412998127197983 0.0
    vertex 19.006725799387112 18.1087001872802 0.0
    vertex 19.049999999999997 17.779999999999998 0.0
  endloop
endfacet
facet normal 0.0 0.0 -1.0
  outer loop
    vertex 19.006725799387112 0.9412998127197983 0.0
    vertex 19.049999999999997 17.779999999999998 0.0
    vertex 19.049999999999997 1.27 0.0
  endloop
endfacet
facet normal 0.9456560884057946 0.32516851394477286 -0.0
  outer loop
    vertex 7.305137546633151 11.861511084218108 4.191000000000001
    vertex 8.758419794398158 7.635071109760893 4.470400000000001
    vertex 8.758419794398158 7.635071109760893 4.191000000000001
  endloop
endfacet
facet normal 0.9456560884057946 0.32516851394477286 -0.0
  outer loop
    vertex 8.758419794398158 7.635071109760893 4.470400000000001
    vertex 7.305137546633151 11.861511084218108 4.191000000000001
    vertex 7.305137546633151 11.861511084218108 4.470400000000001
  endloop
endfacet
facet normal 0.0 -1.0 0.0
  outer loop
    vertex 10.819128606658694 11.861511084218108 4.470400000000001
    vertex 10.245763344845157 11.861511084218108 4.191000000000001
    vertex 10.819128606658694 11.861511084218108 4.191000000000001
  endloop
endfacet
facet normal 0.0 -1.0 0.0
  outer loop
    vertex 10.245763344845157 11.861511084218108 4.191000000000001
    vertex 10.819128606658694 11.861511084218108 4.470400000000001
    vertex 10.245763344845157 11.861511084218108 4.470400000000001
  endloop
endfacet
facet normal 0.9486832980505138 -0.3162277660168381 -0.0
  outer loop
    vertex 10.245763344845157 11.861511084218108 4.191000000000001
    vertex 9.076325286096752 8.353196907972897 4.470400000000001
    vertex 9.076325286096752 8.353196907972897 4.191000000000001
  endloop
endfacet
facet normal 0.9486832980505138 -0.3162277660168381 -0.0
  outer loop
    vertex 9.076325286096752 8.353196907972897 4.470400000000001
    vertex 10.245763344845157 11.861511084218108 4.191000000000001
    vertex 10.245763344845157 11.861511084218108 4.470400000000001
  endloop
endfacet
facet normal -0.948683298050514 -0.31622776601683783 2.1251332494773249e-16
  outer loop
    vertex 7.906887227348348 11.861511084218108 4.470400000000001
    vertex 9.076325286096752 8.353196907972897 4.191000000000001
    vertex 9.076325286096752 8.353196907972897 4.470400000000001
  endloop
endfacet
facet normal -0.948683298050514 -0.31622776601683783 2.1251332494773249e-16
  outer loop
    vertex 9.076325286096752 8.353196907972897 4.191000000000001
    vertex 7.906887227348348 11.861511084218108 4.470400000000001
    vertex 7.906887227348348 11.861511084218108 4.191000000000001
  endloop
endfacet
facet normal 0.0 -1.0 0.0
  outer loop
    vertex 7.906887227348348 11.861511084218108 4.470400000000001
    vertex 7.305137546633151 11.861511084218108 4.191000000000001
    vertex 7.906887227348348 11.861511084218108 4.191000000000001
  endloop
endfacet
facet normal 0.0 -1.0 0.0
  outer loop
    vertex 7.305137546633151 11.861511084218108 4.191000000000001
    vertex 7.906887227348348 11.861511084218108 4.470400000000001
    vertex 7.305137546633151 11.861511084218108 4.470400000000001
  endloop
endfacet
facet normal -0.0 1.0 -0.0
  outer loop
    vertex 8.758419794398158 7.635071109760893 4.470400000000001
    vertex 9.365846358893688 7.635071109760893 4.191000000000001
    vertex 8.758419794398158 7.635071109760893 4.191000000000001
  endloop
endfacet
facet normal -0.0 1.0 -0.0
  outer loop
    vertex 9.365846358893688 7.635071109760893 4.191000000000001
    vertex 8.758419794398158 7.635071109760893 4.470400000000001
    vertex 9.365846358893688 7.635071109760893 4.470400000000001
  endloop
endfacet
facet normal -0.9456560884057946 0.32516851394477325 -1.2041437208283166e-29
  outer loop
    vertex 10.819128606658694 11.861511084218108 4.470400000000001
    vertex 9.365846358893688 7.635071109760893 4.191000000000001
    vertex 9.365846358893688 7.635071109760893 4.470400000000001
  endloop
endfacet
facet normal -0.9456560884057946 0.32516851394477325 -1.2041437208283166e-29
  outer loop
    vertex 9.365846358893688 7.635071109760893 4.191000000000001
    vertex 10.819128606658694 11.861511084218108 4.470400000000001
    vertex 10.819128606658694 11.861511084218108 4.191000000000001
  endloop
endfacet
facet normal -0.0 -0.0 1.0
  outer loop
    vertex 8.758419794398158 7.635071109760893 4.191000000000001
    vertex 7.906887227348348 11.861511084218108 4.191000000000001
    vertex 7.305137546633151 11.861511084218108 4.191000000000001
  endloop
endfacet
facet normal -0.0 -0.0 1.0
  outer loop
    vertex 7.906887227348348 11.861511084218108 4.191000000000001
    vertex 8.758419794398158 7.635071109760893 4.191000000000001
    vertex 9.076325286096752 8.353196907972897 4.191000000000001
  endloop
endfacet
facet normal -0.0 -0.0 1.0
  outer loop
    vertex 9.076325286096752 8.353196907972897 4.191000000000001
    vertex 8.758419794398158 7.635071109760893 4.191000000000001
    vertex 9.365846358893688 7.635071109760893 4.191000000000001
  endloop
endfacet
facet normal -0.0 -0.0 1.0
  outer loop
    vertex 9.076325286096752 8.353196907972897 4.191000000000001
    vertex 9.365846358893688 7.635071109760893 4.191000000000001
    vertex 10.245763344845157 11.861511084218108 4.191000000000001
  endloop
endfacet
facet normal -0.0 -0.0 1.0
  outer loop
    vertex 10.245763344845157 11.861511084218108 4.191000000000001
    vertex 9.365846358893688 7.635071109760893 4.191000000000001
    vertex 10.819128606658694 11.861511084218108 4.191000000000001
  endloop
endfacet
facet normal -0.0 -0.0 1.0
  outer loop
    vertex 2.032 1.27 4.470400000000004
    vertex 8.758419794398158 7.635071109760893 4.470400000000001
    vertex 7.305137546633151 11.861511084218108 4.470400000000001
  endloop
endfacet
facet normal -0.0 -0.0 1.0
  outer loop
    vertex 8.758419794398158 7.635071109760893 4.470400000000001
    vertex 2.032 1.27 4.470400000000004
    vertex 17.017999999999994 1.27 4.470400000000004
  endloop
endfacet
facet normal -0.0 -0.0 1.0
  outer loop
    vertex 8.758419794398158 7.635071109760893 4.470400000000001
    vertex 17.017999999999994 1.27 4.470400000000004
    vertex 9.365846358893688 7.635071109760893 4.470400000000001
  endloop
endfacet
facet normal -0.0 -0.0 1.0
  outer loop
    vertex 9.365846358893688 7.635071109760893 4.470400000000001
    vertex 17.017999999999994 1.27 4.470400000000004
    vertex 10.819128606658694 11.861511084218108 4.470400000000001
  endloop
endfacet
facet normal -0.0 -0.0 1.0
  outer loop
    vertex 1.27 2.032 4.470400000000004
    vertex 1.2959645203677292 17.21522011236812 4.470400000000004
    vertex 1.2699999999999994 17.017999999999997 4.470400000000004
  endloop
endfacet
facet normal -0.0 -0.0 1.0
  outer loop
    vertex 1.2959645203677292 17.21522011236812 4.470400000000004
    vertex 1.27 2.032 4.470400000000004
    vertex 1.2959645203677297 1.8347798876318795 4.470400000000004
  endloop
endfacet
facet normal -0.0 -0.0 1.0
  outer loop
    vertex 1.2959645203677292 17.21522011236812 4.470400000000004
    vertex 1.2959645203677297 1.8347798876318795 4.470400000000004
    vertex 1.372088642316257 17.398999999999997 4.470400000000004
  endloop
endfacet
facet normal -0.0 -0.0 1.0
  outer loop
    vertex 1.372088642316257 17.398999999999997 4.470400000000004
    vertex 1.2959645203677297 1.8347798876318795 4.470400000000004
    vertex 1.3720886423162573 1.6510000000000007 4.470400000000004
  endloop
endfacet
facet normal -0.0 -0.0 1.0
  outer loop
    vertex 1.372088642316257 17.398999999999997 4.470400000000004
    vertex 1.3720886423162573 1.6510000000000007 4.470400000000004
    vertex 1.4931846327358498 17.556815367264146 4.470400000000004
  endloop
endfacet
facet normal -0.0 -0.0 1.0
  outer loop
    vertex 1.4931846327358498 17.556815367264146 4.470400000000004
    vertex 1.3720886423162573 1.6510000000000007 4.470400000000004
    vertex 1.4931846327358504 1.493184632735851 4.470400000000004
  endloop
endfacet
facet normal -0.0 -0.0 1.0
  outer loop
    vertex 1.4931846327358498 17.556815367264146 4.470400000000004
    vertex 1.4931846327358504 1.493184632735851 4.470400000000004
    vertex 1.6509999999999994 17.67791135768374 4.470400000000004
  endloop
endfacet
facet normal -0.0 -0.0 1.0
  outer loop
    vertex 1.6509999999999994 17.67791135768374 4.470400000000004
    vertex 1.4931846327358504 1.493184632735851 4.470400000000004
    vertex 1.6509999999999996 1.3720886423162582 4.470400000000004
  endloop
endfacet
facet normal -0.0 -0.0 1.0
  outer loop
    vertex 1.6509999999999994 17.67791135768374 4.470400000000004
    vertex 1.6509999999999996 1.3720886423162582 4.470400000000004
    vertex 1.8347798876318788 17.754035479632268 4.470400000000004
  endloop
endfacet
facet normal -0.0 -0.0 1.0
  outer loop
    vertex 1.8347798876318788 17.754035479632268 4.470400000000004
    vertex 1.6509999999999996 1.3720886423162582 4.470400000000004
    vertex 1.8347798876318784 1.2959645203677301 4.470400000000004
  endloop
endfacet
facet normal -0.0 -0.0 1.0
  outer loop
    vertex 1.8347798876318788 17.754035479632268 4.470400000000004
    vertex 1.8347798876318784 1.2959645203677301 4.470400000000004
    vertex 2.032 1.27 4.470400000000004
  endloop
endfacet
facet normal -0.0 -0.0 1.0
  outer loop
    vertex 1.8347798876318788 17.754035479632268 4.470400000000004
    vertex 2.032 1.27 4.470400000000004
    vertex 2.0319999999999996 17.779999999999998 4.470400000000004
  endloop
endfacet
facet normal -0.0 -0.0 1.0
  outer loop
    vertex 2.0319999999999996 17.779999999999998 4.470400000000004
    vertex 2.032 1.27 4.470400000000004
    vertex 7.305137546633151 11.861511084218108 4.470400000000001
  endloop
endfacet
facet normal -0.0 -0.0 1.0
  outer loop
    vertex 2.0319999999999996 17.779999999999998 4.470400000000004
    vertex 7.305137546633151 11.861511084218108 4.470400000000001
    vertex 17.017999999999994 17.779999999999998 4.470400000000004
  endloop
endfacet
facet normal -0.0 -0.0 1.0
  outer loop
    vertex 17.017999999999994 17.779999999999998 4.470400000000004
    vertex 7.305137546633151 11.861511084218108 4.470400000000001
    vertex 7.906887227348348 11.861511084218108 4.470400000000001
  endloop
endfacet
facet normal -0.0 -0.0 1.0
  outer loop
    vertex 17.017999999999994 17.779999999999998 4.470400000000004
    vertex 7.906887227348348 11.861511084218108 4.470400000000001
    vertex 10.245763344845157 11.861511084218108 4.470400000000001
  endloop
endfacet
facet normal -0.0 -0.0 1.0
  outer loop
    vertex 10.245763344845157 11.861511084218108 4.470400000000001
    vertex 7.906887227348348 11.861511084218108 4.470400000000001
    vertex 9.076325286096752 8.353196907972897 4.470400000000001
  endloop
endfacet
facet normal -0.0 -0.0 1.0
  outer loop
    vertex 17.017999999999994 17.779999999999998 4.470400000000004
    vertex 10.245763344845157 11.861511084218108 4.470400000000001
    vertex 10.819128606658694 11.861511084218108 4.470400000000001
  endloop
endfacet
facet normal -0.0 -0.0 1.0
  outer loop
    vertex 17.017999999999994 17.779999999999998 4.470400000000004
    vertex 10.819128606658694 11.861511084218108 4.470400000000001
    vertex 17.017999999999994 1.27 4.470400000000004
  endloop
endfacet
facet normal -0.0 -0.0 1.0
  outer loop
    vertex 17.017999999999994 17.779999999999998 4.470400000000004
    vertex 17.017999999999994 1.27 4.470400000000004
    vertex 17.215220112368115 1.29596452036773 4.470400000000004
  endloop
endfacet
facet normal -0.0 -0.0 1.0
  outer loop
    vertex 17.017999999999994 17.779999999999998 4.470400000000004
    vertex 17.215220112368115 1.29596452036773 4.470400000000004
    vertex 17.215220112368115 17.754035479632268 4.470400000000004
  endloop
endfacet
facet normal -0.0 -0.0 1.0
  outer loop
    vertex 17.215220112368115 17.754035479632268 4.470400000000004
    vertex 17.215220112368115 1.29596452036773 4.470400000000004
    vertex 17.398999999999994 1.3720886423162577 4.470400000000004
  endloop
endfacet
facet normal -0.0 -0.0 1.0
  outer loop
    vertex 17.215220112368115 17.754035479632268 4.470400000000004
    vertex 17.398999999999994 1.3720886423162577 4.470400000000004
    vertex 17.398999999999994 17.67791135768374 4.470400000000004
  endloop
endfacet
facet normal -0.0 -0.0 1.0
  outer loop
    vertex 17.398999999999994 17.67791135768374 4.470400000000004
    vertex 17.398999999999994 1.3720886423162577 4.470400000000004
    vertex 17.556815367264143 1.4931846327358507 4.470400000000004
  endloop
endfacet
facet normal -0.0 -0.0 1.0
  outer loop
    vertex 17.398999999999994 17.67791135768374 4.470400000000004
    vertex 17.556815367264143 1.4931846327358507 4.470400000000004
    vertex 17.556815367264143 17.556815367264146 4.470400000000004
  endloop
endfacet
facet normal -0.0 -0.0 1.0
  outer loop
    vertex 17.556815367264143 17.556815367264146 4.470400000000004
    vertex 17.556815367264143 1.4931846327358507 4.470400000000004
    vertex 17.677911357683737 1.651 4.470400000000004
  endloop
endfacet
facet normal -0.0 -0.0 1.0
  outer loop
    vertex 17.556815367264143 17.556815367264146 4.470400000000004
    vertex 17.677911357683737 1.651 4.470400000000004
    vertex 17.677911357683737 17.398999999999997 4.470400000000004
  endloop
endfacet
facet normal -0.0 -0.0 1.0
  outer loop
    vertex 17.677911357683737 17.398999999999997 4.470400000000004
    vertex 17.677911357683737 1.651 4.470400000000004
    vertex 17.754035479632265 1.834779887631879 4.470400000000004
  endloop
endfacet
facet normal -0.0 -0.0 1.0
  outer loop
    vertex 17.677911357683737 17.398999999999997 4.470400000000004
    vertex 17.754035479632265 1.834779887631879 4.470400000000004
    vertex 17.754035479632265 17.21522011236812 4.470400000000004
  endloop
endfacet
facet normal -0.0 -0.0 1.0
  outer loop
    vertex 17.754035479632265 17.21522011236812 4.470400000000004
    vertex 17.754035479632265 1.834779887631879 4.470400000000004
    vertex 17.779999999999994 2.032 4.470400000000004
  endloop
endfacet
facet normal -0.0 -0.0 1.0
  outer loop
    vertex 17.754035479632265 17.21522011236812 4.470400000000004
    vertex 17.779999999999994 2.032 4.470400000000004
    vertex 17.779999999999994 17.017999999999997 4.470400000000004
  endloop
endfacet
facet normal 0.0 0.0 -1.0
  outer loop
    vertex 15.874999999999993 15.875 1.651
    vertex 3.1749999999999967 3.174999999999998 1.651
    vertex 3.1749999999999967 15.875 1.651
  endloop
endfacet
facet normal 0.0 0.0 -1.0
  outer loop
    vertex 3.1749999999999967 3.174999999999998 1.651
    vertex 15.874999999999993 15.875 1.651
    vertex 15.874999999999993 3.174999999999998 1.651
  endloop
endfacet
facet normal -0.0 1.0 0.0
  outer loop
    vertex 3.1749999999999967 3.174999999999998 1.651
    vertex 15.874999999999993 3.174999999999998 -3.524958103184872e-16
    vertex 3.1749999999999967 3.174999999999998 -3.524958103184872e-16
  endloop
endfacet
facet normal -0.0 1.0 0.0
  outer loop
    vertex 15.874999999999993 3.174999999999998 -3.524958103184872e-16
    vertex 3.1749999999999967 3.174999999999998 1.651
    vertex 15.874999999999993 3.174999999999998 1.651
  endloop
endfacet
facet normal -1.0 0.0 0.0
  outer loop
    vertex 15.874999999999993 15.875 1.651
    vertex 15.874999999999993 3.174999999999998 -3.524958103184872e-16
    vertex 15.874999999999993 3.174999999999998 1.651
  endloop
endfacet
facet normal -1.0 0.0 0.0
  outer loop
    vertex 15.874999999999993 3.174999999999998 -3.524958103184872e-16
    vertex 15.874999999999993 15.875 1.651
    vertex 15.874999999999993 15.875 -3.524958103184872e-16
  endloop
endfacet
facet normal -0.0 -1.0 -0.0
  outer loop
    vertex 15.874999999999993 15.875 1.651
    vertex 3.1749999999999967 15.875 -3.524958103184872e-16
    vertex 15.874999999999993 15.875 -3.524958103184872e-16
  endloop
endfacet
facet normal -0.0 -1.0 -0.0
  outer loop
    vertex 3.1749999999999967 15.875 -3.524958103184872e-16
    vertex 15.874999999999993 15.875 1.651
    vertex 3.1749999999999967 15.875 1.651
  endloop
endfacet
facet normal 1.0 0.0 0.0
  outer loop
    vertex 3.1749999999999967 15.875 -3.524958103184872e-16
    vertex 3.1749999999999967 3.174999999999998 1.651
    vertex 3.1749999999999967 3.174999999999998 -3.524958103184872e-16
  endloop
endfacet
facet normal 1.0 0.0 0.0
  outer loop
    vertex 3.1749999999999967 3.174999999999998 1.651
    vertex 3.1749999999999967 15.875 -3.524958103184872e-16
    vertex 3.1749999999999967 15.875 1.651
  endloop
endfacet
endsolid v
